<?xml version="1.0" encoding="UTF-8" standalone="no"?>
<svg
   xmlns:dc="http://purl.org/dc/elements/1.1/"
   xmlns:cc="http://creativecommons.org/ns#"
   xmlns:rdf="http://www.w3.org/1999/02/22-rdf-syntax-ns#"
   xmlns:svg="http://www.w3.org/2000/svg"
   xmlns="http://www.w3.org/2000/svg"
   xmlns:sodipodi="http://sodipodi.sourceforge.net/DTD/sodipodi-0.dtd"
   xmlns:inkscape="http://www.inkscape.org/namespaces/inkscape"
   version="1.1"
   id="Layer_1"
   x="0px"
   y="0px"
   viewBox="0 0 85.2 122.88"
   style="enable-background:new 0 0 85.2 122.88"
   xml:space="preserve"
   sodipodi:docname="smartwatch-charging.svg"
   inkscape:version="1.0.1 (3bc2e813f5, 2020-09-07)"><metadata
     id="metadata86"><rdf:RDF><cc:Work
         rdf:about=""><dc:format>image/svg+xml</dc:format><dc:type
           rdf:resource="http://purl.org/dc/dcmitype/StillImage" /></cc:Work></rdf:RDF></metadata><defs
     id="defs84" /><sodipodi:namedview
     pagecolor="#ffffff"
     bordercolor="#666666"
     borderopacity="1"
     objecttolerance="10"
     gridtolerance="10"
     guidetolerance="10"
     inkscape:pageopacity="0"
     inkscape:pageshadow="2"
     inkscape:window-width="1920"
     inkscape:window-height="983"
     id="namedview82"
     showgrid="false"
     inkscape:zoom="6.3964844"
     inkscape:cx="42.6"
     inkscape:cy="62.522207"
     inkscape:window-x="0"
     inkscape:window-y="0"
     inkscape:window-maximized="1"
     inkscape:current-layer="Layer_1" /><style
     type="text/css"
     id="style75">.st0{fill-rule:evenodd;clip-rule:evenodd;}</style><g
     id="g79"><path
       class="st0"
       d="M79.88,52.56c2.97,0.27,5.31,2.78,5.31,5.81v7.14c0,3.03-2.35,5.54-5.31,5.81v14.37 c0,4.54-1.86,8.67-4.85,11.67c-2.99,2.99-7.12,4.85-11.67,4.85h-1.51H17.69h-1.18c-4.54,0-8.67-1.86-11.67-4.85 C1.86,94.36,0,90.23,0,85.69v-47.5c0-4.54,1.86-8.67,4.85-11.67c2.99-2.99,7.12-4.85,11.67-4.85h1.18V4.12 c0-2.27,1.85-4.12,4.12-4.12h35.92c2.27,0,4.12,1.86,4.12,4.12v17.55h1.51c4.54,0,8.67,1.86,11.67,4.85 c2.99,2.99,4.85,7.12,4.85,11.67V52.56L79.88,52.56z M37.34,44.57l10.19,0.12l-4.75,15.37h11L35.68,82.47l4.6-15.45h-8.86 L37.34,44.57L37.34,44.57z M21.94,32.53h36c6.14,0,11.16,5.02,11.16,11.16v36.5c0,6.14-5.02,11.16-11.16,11.16h-36 c-6.14,0-11.16-5.02-11.16-11.16v-36.5C10.78,37.55,15.8,32.53,21.94,32.53L21.94,32.53z M63.37,25.65H16.52 c-3.44,0-6.58,1.41-8.85,3.68c-2.27,2.27-3.68,5.41-3.68,8.85v47.5c0,3.44,1.41,6.58,3.68,8.85c2.27,2.27,5.41,3.68,8.85,3.68 h46.85c3.44,0,6.58-1.41,8.85-3.68c2.27-2.27,3.68-5.41,3.68-8.85v-47.5c0-3.44-1.41-6.58-3.68-8.85 C69.94,27.07,66.81,25.65,63.37,25.65L63.37,25.65z M61.86,102.2v16.56c0,2.27-1.86,4.12-4.12,4.12H21.82 c-2.27,0-4.12-1.85-4.12-4.12V102.2H61.86L61.86,102.2z"
       id="path77" /></g><path
     style="fill:#3366cc;stroke-width:0.156336"
     d="M 13.912366,101.91743 C 7.6565756,100.93208 2.2364337,96.020157 0.63055148,89.880986 0.01327748,87.521193 -0.02275349,85.731492 0.03726339,60.411673 0.09074081,37.850703 0.1147222,36.01825 0.37054321,34.945252 1.2744186,31.154103 3.0803096,28.140171 5.9113974,25.697876 c 2.8477847,-2.4567 6.0703666,-3.712469 9.9160836,-3.864082 l 1.993282,-0.07858 V 12.60937 c 0,-6.5577241 0.05203,-9.3194969 0.183854,-9.7594936 0.232772,-0.7769252 1.224986,-1.91221935 2.062973,-2.36046075 l 0.645387,-0.34521978 h 19.072977 19.072977 l 0.625344,0.33805617 c 0.831063,0.44926613 1.552546,1.22396516 1.94192,2.08514996 0.308231,0.6817224 0.31819,0.9897324 0.321517,9.944856 l 0.0034,9.241346 2.227787,0.08766 c 3.373254,0.132735 5.795785,0.90001 8.479415,2.685636 3.199192,2.12867 5.631084,5.47235 6.724604,9.24586 0.577844,1.994018 0.700334,4.05754 0.701819,11.823112 l 0.0014,6.993052 0.429924,0.09199 c 1.533236,0.328059 2.715389,1.080335 3.658444,2.328091 1.032037,1.365487 1.089535,1.76504 1.038136,7.214033 l -0.04566,4.832913 -0.457286,0.931357 c -0.781926,1.592551 -2.116669,2.663903 -3.881139,3.115261 l -0.820659,0.209926 -0.08813,8.658903 c -0.0949,9.324684 -0.07001,9.030669 -0.971915,11.48121 -1.585005,4.306597 -5.329658,8.039323 -9.644919,9.614192 -2.922196,1.06647 -0.7409,0.98827 -28.613511,1.02587 -20.456278,0.0276 -25.500453,-0.006 -26.5771,-0.17524 z m 52.027355,-3.919523 c 4.486899,-0.919894 8.173654,-4.370757 9.596856,-8.982813 l 0.359952,-1.166475 0.04379,-25.365563 C 75.982864,37.8356 75.975454,37.075144 75.678522,35.62164 74.751593,31.084241 71.442133,27.509949 66.832061,26.067258 L 65.425038,25.62694 H 39.94229 14.459542 l -1.407023,0.440318 C 9.4956845,27.180345 6.7698487,29.480621 5.2376597,32.662054 3.8762189,35.488946 3.9850382,32.942433 3.9850382,61.975032 v 25.717251 l 0.3590742,1.240024 c 1.329871,4.592565 5.0145515,8.079435 9.5857316,9.071126 0.826342,0.179271 5.296663,0.21881 25.901785,0.229094 22.117745,0.01104 25.037857,-0.0152 26.108092,-0.23462 z"
     id="path913" /><path
     style="fill:#3366cc;stroke-width:0.156336"
     d="m 19.340314,90.964864 c -3.845972,-0.93176 -6.965667,-3.995057 -8.11643,-7.969703 L 10.863817,81.75152 V 62.0532 c 0,-16.0338 0.03951,-19.872822 0.212395,-20.636336 0.882265,-3.896406 3.736285,-7.007299 7.656513,-8.345628 l 1.198573,-0.409182 H 39.94229 59.953282 l 1.250687,0.425924 c 4.353257,1.482508 7.261628,5.096296 7.748338,9.627673 0.106507,0.991608 0.145294,7.99854 0.112234,20.275564 l -0.05052,18.760305 -0.34401,1.219495 c -1.1245,3.986313 -4.294818,7.081191 -8.195877,8.000848 -1.432927,0.337806 -39.737492,0.331288 -41.133823,-0.007 z M 45.013876,71.050805 c 4.820276,-5.971381 8.764139,-10.913549 8.764139,-10.982596 0,-0.06905 -2.427114,-0.125544 -5.393588,-0.125544 -3.597898,0 -5.393587,-0.05364 -5.393587,-0.161102 0,-0.08861 1.020091,-3.456118 2.26687,-7.483356 1.246779,-4.027239 2.26687,-7.390887 2.26687,-7.474773 0,-0.13421 -10.137132,-0.457182 -10.233757,-0.32605 -0.07522,0.102077 -5.87098,22.259771 -5.869948,22.441312 9.38e-4,0.151674 0.984752,0.19542 4.395241,0.19542 3.72372,0 4.381183,0.03374 4.309268,0.221148 -0.0792,0.206393 -4.24337,14.179944 -4.429902,14.865264 l -0.0851,0.312672 0.319678,-0.312672 c 0.175824,-0.17197 4.263542,-5.198345 9.08382,-11.169723 z"
     id="path915" /><path
     style="fill:#3366cc;stroke-width:0.156336"
     d="m 20.549325,122.58237 c -1.280649,-0.49343 -2.248358,-1.47747 -2.575832,-2.6193 -0.09107,-0.31755 -0.15273,-3.98841 -0.15273,-9.09296 v -8.56042 h 21.968968 21.968968 l -0.04286,8.79389 c -0.03946,8.09663 -0.06513,8.83861 -0.323696,9.35789 -0.406768,0.8169 -1.169729,1.54118 -2.064203,1.95955 l -0.781679,0.36561 -18.760306,-0.0104 c -13.96336,-0.008 -18.882099,-0.0573 -19.236629,-0.1939 z"
     id="path917" /></svg>
